<?xml version="1.0"?>
<svg version="1.1" xmlns="http://www.w3.org/2000/svg" width="400" height="50" style=""><path fill="#e94949" d="M15.89208984375,37.12109375q0.0849609375-2.2939453125,0.148681640625-4.701171875t0.120361328125-4.750732421875t0.0849609375-4.552490234375t0.0283203125-4.12060546875q0.0283203125-0.38232421875,0.66552734375-0.60888671875t1.522216796875-0.332763671875t1.869140625-0.134521484375t1.748779296875-0.0283203125q0.169921875,0,0.7080078125-0.01416015625l0.26904296875,0q0.41064453125,0,0.86376953125,0.0283203125q0.5947265625,0.04248046875,1.040771484375,0.18408203125t0.446044921875,0.41064453125q0,0.1982421875-0.15576171875,0.318603515625t-0.361083984375,0.177001953125t-0.4248046875,0.07080078125t-0.304443359375,0.01416015625q-1.3310546875,0-2.6337890625-0.04248046875q-0.35400390625-0.01416015625-0.72216796875-0.01416015625q-0.962890625,0-1.9541015625,0.0849609375q0.056640625,0.169921875,0.092041015625,1.026611328125t0.035400390625,1.932861328125t-0.01416015625,2.102783203125t0,1.578857421875l0,3.681640625q0.43896484375-0.0283203125,0.86376953125-0.0283203125l0.849609375,0l0.56640625-0.0283203125q0.283203125-0.01416015625,0.5947265625-0.01416015625q0.32568359375,0,0.66552734375,0.01416015625q0.6796875,0.0283203125,1.239013671875,0.162841796875t0.559326171875,0.474365234375q0,0.2548828125-0.21240234375,0.375244140625t-0.474365234375,0.177001953125t-0.49560546875,0.056640625l-0.261962890625,0q-0.80712890625,0-1.677978515625-0.056640625t-1.621337890625-0.056640625q-0.1416015625,0.056640625-0.304443359375,0.04248046875t-0.290283203125-0.01416015625q0,2.1240234375-0.04248046875,4.226806640625t-0.09912109375,4.184326171875q0,0.41064453125-0.516845703125,0.5380859375t-0.984130859375,0.12744140625q-0.52392578125,0-0.828369140625-0.12744140625t-0.431884765625-0.417724609375t-0.15576171875-0.771728515625q-0.01416015625-0.26904296875-0.0283203125-0.5947265625q0-0.26904296875,0.01416015625-0.58056640625z M27.442104492188,30.25341796875q0-0.58056640625,0.205322265625-0.97705078125t0.870849609375-0.396484375q0.2548828125,0,0.63720703125,0.077880859375t0.43896484375,0.389404296875q0.1416015625,0.83544921875,0.15576171875,1.8125t0.09912109375,1.8408203125q0.32568359375-0.63720703125,0.83544921875-1.37353515625t1.1611328125-1.359375t1.416015625-1.03369140625t1.5576171875-0.41064453125q0.056640625,0,0.21240234375,0.04248046875t0.290283203125,0.120361328125t0.162841796875,0.177001953125t-0.15576171875,0.18408203125q-0.056640625,0.169921875-0.24072265625,0.205322265625t-0.32568359375,0.035400390625q-0.0849609375,0-0.26904296875-0.07080078125q-1.0478515625,0.55224609375-1.7841796875,1.5009765625t-1.20361328125,2.102783203125t-0.6796875,2.435546875t-0.21240234375,2.499267578125q0,0.60888671875-0.276123046875,0.736328125t-0.885009765625,0.12744140625q-0.32568359375,0-0.686767578125-0.07080078125t-0.502685546875-0.453125q-0.2548828125-0.80712890625-0.417724609375-1.85498046875t-0.247802734375-2.159423828125t-0.120361328125-2.187744140625t-0.035400390625-1.93994140625z M37.505302734375,34.798828125q0-0.9912109375,0.219482421875-2.33642578125t0.743408203125-2.548828125t1.380615234375-2.046142578125t2.159423828125-0.842529296875q1.2177734375,0,1.82666015625,0.700927734375t0.60888671875,1.890380859375q0,0.77880859375-0.290283203125,1.706298828125t-0.828369140625,1.755859375t-1.2744140625,1.380615234375t-1.642578125,0.55224609375l-0.3681640625-0.0283203125q0,0.38232421875,0.11328125,1.026611328125t0.332763671875,1.281494140625t0.56640625,1.11865234375t0.842529296875,0.4814453125q0.72216796875,0,1.3876953125-0.58056640625t1.26025390625-1.28857421875t1.1044921875-1.28857421875t0.9345703125-0.58056640625q0.2265625,0,0.46728515625,0.07080078125t0.26904296875,0.396484375q0,0.1982421875-0.106201171875,0.32568359375t-0.191162109375,0.283203125q-0.43896484375,0.75048828125-0.955810546875,1.43017578125t-1.168212890625,1.23193359375t-1.423095703125,0.870849609375t-1.706298828125,0.318603515625q-1.2177734375,0-2.02490234375-0.431884765625t-1.302734375-1.1611328125t-0.715087890625-1.68505859375t-0.219482421875-2.003662109375z M40.039970703125,33.72265625l0.396484375,0.35400390625q0.283203125,0.2548828125,0.56640625,0.11328125t0.509765625-0.516845703125t0.417724609375-0.927490234375t0.33984375-1.1328125t0.219482421875-1.1328125t0.07080078125-0.92041015625l0-0.4814453125t-0.04248046875-0.509765625t-0.148681640625-0.403564453125t-0.332763671875-0.205322265625q-0.07080078125-0.01416015625-0.12744140625-0.01416015625q-0.4814453125,0-0.8212890625,0.60888671875q-0.3681640625,0.6796875-0.5947265625,1.649658203125t-0.32568359375,1.989501953125t-0.12744140625,1.529296875z M49.338520507813,34.798828125q0-0.9912109375,0.219482421875-2.33642578125t0.743408203125-2.548828125t1.380615234375-2.046142578125t2.159423828125-0.842529296875q1.2177734375,0,1.82666015625,0.700927734375t0.60888671875,1.890380859375q0,0.77880859375-0.290283203125,1.706298828125t-0.828369140625,1.755859375t-1.2744140625,1.380615234375t-1.642578125,0.55224609375l-0.3681640625-0.0283203125q0,0.38232421875,0.11328125,1.026611328125t0.332763671875,1.281494140625t0.56640625,1.11865234375t0.842529296875,0.4814453125q0.72216796875,0,1.3876953125-0.58056640625t1.26025390625-1.28857421875t1.1044921875-1.28857421875t0.9345703125-0.58056640625q0.2265625,0,0.46728515625,0.07080078125t0.26904296875,0.396484375q0,0.1982421875-0.106201171875,0.32568359375t-0.191162109375,0.283203125q-0.43896484375,0.75048828125-0.955810546875,1.43017578125t-1.168212890625,1.23193359375t-1.423095703125,0.870849609375t-1.706298828125,0.318603515625q-1.2177734375,0-2.02490234375-0.431884765625t-1.302734375-1.1611328125t-0.715087890625-1.68505859375t-0.219482421875-2.003662109375z M51.873188476563,33.72265625l0.396484375,0.35400390625q0.283203125,0.2548828125,0.56640625,0.11328125t0.509765625-0.516845703125t0.417724609375-0.927490234375t0.33984375-1.1328125t0.219482421875-1.1328125t0.07080078125-0.92041015625l0-0.4814453125t-0.04248046875-0.509765625t-0.148681640625-0.403564453125t-0.332763671875-0.205322265625q-0.07080078125-0.01416015625-0.12744140625-0.01416015625q-0.4814453125,0-0.8212890625,0.60888671875q-0.3681640625,0.6796875-0.5947265625,1.649658203125t-0.32568359375,1.989501953125t-0.12744140625,1.529296875z M66.689526367187,34.7705078125q0-1.1328125,0.49560546875-2.145263671875t1.281494140625-1.869140625t1.7275390625-1.564697265625t1.833740234375-1.28857421875q-0.283203125-0.80712890625-0.502685546875-1.536376953125t-0.219482421875-1.621337890625q0-1.1611328125,0.375244140625-2.102783203125t1.06201171875-1.6142578125t1.642578125-1.0478515625t2.116943359375-0.375244140625q0.60888671875,0,1.24609375,0.191162109375t1.1611328125,0.56640625t0.842529296875,0.913330078125t0.318603515625,1.23193359375q0,1.0478515625-0.56640625,1.91162109375t-1.394775390625,1.593017578125t-1.77001953125,1.323974609375t-1.692138671875,1.09033203125q0.1982421875,0.41064453125,0.403564453125,0.814208984375t0.431884765625,0.800048828125q0.55224609375-0.2548828125,1.366455078125-0.672607421875t1.663818359375-0.913330078125t1.607177734375-0.962890625t1.253173828125-0.80712890625q0.2548828125-0.1982421875,0.516845703125-0.460205078125t0.52392578125-0.49560546875t0.545166015625-0.41064453125t0.63720703125-0.177001953125q0.38232421875,0,0.743408203125,0.07080078125t0.446044921875,0.4814453125q0.0849609375,0.43896484375-0.58056640625,0.97705078125t-1.578857421875,1.026611328125t-1.79833984375,0.870849609375t-1.196533203125,0.52392578125q1.77001953125,0.1982421875,2.548828125,1.34521484375t0.77880859375,2.8037109375q0,1.2177734375-0.474365234375,2.216064453125t-1.323974609375,1.833740234375q0.1416015625,0.1416015625,0.6796875,0.69384765625t1.14697265625,1.196533203125t1.09033203125,1.1611328125t0.509765625,0.573486328125q-0.056640625,0.283203125-0.403564453125,0.361083984375t-0.587646484375,0.077880859375q-0.41064453125,0-0.941650390625-0.375244140625t-1.083251953125-0.899169921875t-1.026611328125-1.0478515625t-0.771728515625-0.80712890625q-1.24609375,0.66552734375-2.640869140625,0.941650390625t-2.782470703125,0.276123046875q-1.0478515625,0-2.37890625-0.233642578125t-2.50634765625-0.771728515625t-1.975341796875-1.437255859375t-0.800048828125-2.230224609375z M69.592358398437,34.685546875q0,0.9345703125,0.46728515625,1.5859375t1.17529296875,1.069091796875t1.564697265625,0.623046875t1.635498046875,0.205322265625q1.01953125,0,2.10986328125-0.304443359375t1.869140625-0.969970703125q-0.83544921875-0.89208984375-1.663818359375-1.8125t-1.593017578125-1.869140625q-0.169921875,0.283203125-0.29736328125,0.601806640625t-0.12744140625,0.672607421875q0,0.43896484375,0.2548828125,0.72216796875q0.169921875,0.11328125,0.5380859375,0.304443359375t0.3681640625,0.417724609375q0,0.1982421875-0.162841796875,0.332763671875t-0.38232421875,0.191162109375t-0.431884765625,0.0849609375t-0.3681640625,0.0283203125q-0.43896484375,0-0.913330078125-0.12744140625t-0.849609375-0.389404296875t-0.623046875-0.6513671875t-0.247802734375-0.913330078125q0-0.46728515625,0.177001953125-0.9345703125t0.453125-0.870849609375t0.60888671875-0.7646484375t0.672607421875-0.658447265625q-0.2548828125-0.41064453125-0.502685546875-0.814208984375t-0.446044921875-0.800048828125q-0.58056640625,0.41064453125-1.1611328125,0.969970703125t-1.0478515625,1.210693359375t-0.771728515625,1.394775390625t-0.304443359375,1.465576171875z M73.684643554687,24.830078125q0,0.962890625,0.2548828125,1.82666015625q0.49560546875-0.1416015625,1.06201171875-0.6513671875t1.06201171875-1.189453125t0.870849609375-1.423095703125t0.488525390625-1.352294921875t-0.09912109375-0.998291015625t-0.8779296875-0.361083984375q-0.75048828125,0.0283203125-1.28857421875,0.417724609375t-0.86376953125,0.984130859375t-0.46728515625,1.323974609375t-0.1416015625,1.423095703125z M76.502514648437,31.66943359375q0.69384765625,1.01953125,1.465576171875,1.982421875t1.607177734375,1.8974609375q0.32568359375-0.55224609375,0.453125-1.111572265625t0.12744140625-1.196533203125q0-0.283203125-0.04248046875-0.7646484375t-0.191162109375-0.9345703125t-0.396484375-0.800048828125t-0.615966796875-0.403564453125l-0.0283203125-0.0283203125q-0.11328125,0-0.46728515625,0.169921875t-0.729248046875,0.403564453125t-0.72216796875,0.46728515625t-0.460205078125,0.318603515625z M93.145512695312,39.17431640625q0-0.0849609375,0.056640625-0.601806640625t0.148681640625-1.26025390625t0.205322265625-1.60009765625t0.1982421875-1.621337890625t0.148681640625-1.34521484375t0.063720703125-0.77880859375q-0.11328125-0.056640625-0.276123046875-0.162841796875t-0.162841796875-0.247802734375q0-0.1982421875,0.191162109375-0.318603515625t0.332763671875-0.177001953125q0.056640625-0.72216796875,0.1416015625-2.0107421875t0.261962890625-2.782470703125t0.49560546875-3.0302734375t0.842529296875-2.78955078125t1.26025390625-2.046142578125t1.8125-0.79296875t1.7841796875,0.6796875t1.154052734375,1.77001953125t0.6796875,2.42138671875t0.35400390625,2.64794921875t0.148681640625,2.4638671875t0.056640625,1.8408203125q0.0283203125,0.43896484375,0.21240234375,0.587646484375t0.403564453125,0.205322265625t0.396484375,0.12744140625t0.177001953125,0.35400390625q0,0.32568359375-0.396484375,0.453125t-0.623046875,0.15576171875q0.1416015625,1.77001953125,0.389404296875,3.4833984375t0.658447265625,3.455078125q0.056640625,0.32568359375,0.15576171875,0.658447265625t0.09912109375,0.644287109375q0,0.2265625-0.15576171875,0.375244140625t-0.403564453125,0.233642578125t-0.49560546875,0.11328125t-0.417724609375,0.0283203125q-0.63720703125,0-1.076171875-0.24072265625t-0.58056640625-0.92041015625q-0.38232421875-1.82666015625-0.75048828125-3.83740234375q-0.3115234375-1.74169921875-0.3115234375-3.38427734375q0-0.2548828125,0.01416015625-0.509765625q-1.189453125,0-2.39306640625,0.056640625t-2.30810546875,0.4248046875q-0.0283203125,0.38232421875-0.1416015625,1.4443359375t-0.2548828125,2.27978515625t-0.290283203125,2.329345703125t-0.177001953125,1.578857421875q-0.0283203125,0.1982421875-0.290283203125,0.375244140625t-0.56640625,0.191162109375t-0.5380859375-0.191162109375t-0.233642578125-0.729248046875z M95.793461914062,30.59326171875q1.1044921875-0.2548828125,2.216064453125-0.29736328125t2.244384765625-0.09912109375q-0.056640625-0.35400390625-0.0283203125-0.729248046875t0.0283203125-0.757568359375q0-0.83544921875-0.04248046875-1.93994140625t-0.12744140625-2.2373046875t-0.219482421875-2.230224609375t-0.304443359375-1.9541015625t-0.361083984375-1.366455078125t-0.417724609375-0.509765625q-0.43896484375,0.0283203125-0.828369140625,0.757568359375t-0.7080078125,1.85498046875t-0.58056640625,2.5205078125t-0.43896484375,2.725830078125t-0.290283203125,2.47802734375t-0.1416015625,1.7841796875z M107.41427734375,30.09765625q0-0.9912109375,0.092041015625-2.5771484375t0.219482421875-3.27099609375t0.318603515625-3.193115234375t0.417724609375-2.315185546875q0.0849609375-0.35400390625,0.403564453125-0.4248046875t0.644287109375-0.07080078125q0.43896484375,0,0.757568359375,0.15576171875t0.318603515625,0.6796875q0,2.5771484375-0.318603515625,5.161376953125t-0.346923828125,5.161376953125q0.43896484375-0.66552734375,1.1328125-0.998291015625t1.47265625-0.332763671875q1.076171875,0,1.85498046875,0.43896484375t1.26025390625,1.1328125t0.715087890625,1.607177734375t0.233642578125,1.862060546875q0,0.52392578125-0.106201171875,1.309814453125t-0.318603515625,1.65673828125t-0.5380859375,1.7275390625t-0.771728515625,1.536376953125t-1.026611328125,1.097412109375t-1.2744140625,0.417724609375q-0.1416015625,0-0.375244140625-0.04248046875t-0.46728515625-0.12744140625t-0.389404296875-0.219482421875t-0.15576171875-0.332763671875q0-0.2265625,0.276123046875-0.318603515625t0.446044921875-0.092041015625q0.63720703125-0.283203125,1.1328125-1.182373046875t0.828369140625-1.975341796875t0.502685546875-2.131103515625t0.169921875-1.720458984375q0-0.38232421875-0.11328125-1.01953125t-0.346923828125-1.26025390625t-0.63720703125-1.076171875t-0.955810546875-0.453125q-0.66552734375,0-1.06201171875,0.686767578125t-0.623046875,1.60009765625t-0.304443359375,1.88330078125t-0.077880859375,1.522216796875q0,0.35400390625,0.120361328125,0.700927734375t0.276123046875,0.69384765625t0.276123046875,0.7080078125t0.120361328125,0.715087890625q0,0.169921875-0.148681640625,0.283203125t-0.346923828125,0.18408203125t-0.417724609375,0.092041015625t-0.332763671875,0.021240234375q-0.80712890625,0-1.11865234375-0.38232421875t-0.5380859375-1.076171875q-0.49560546875-1.57177734375-0.686767578125-3.193115234375t-0.191162109375-3.249755859375z M118.90765136719,32.97216796875q0-0.283203125,0.063720703125-0.75048828125t0.148681640625-0.927490234375t0.1982421875-0.856689453125t0.26904296875-0.509765625q0.11328125-0.11328125,0.389404296875-0.2265625t0.58056640625-0.162841796875t0.56640625,0.04248046875t0.318603515625,0.375244140625q-0.1982421875,0.2548828125-0.361083984375,0.870849609375t-0.247802734375,1.366455078125q-0.07080078125,0.63720703125-0.07080078125,1.31689453125l0,0.24072265625q0.01416015625,0.79296875,0.1416015625,1.45849609375t0.389404296875,1.097412109375t0.729248046875,0.431884765625q0.9912109375,0,1.8125-0.913330078125t1.45849609375-2.230224609375t1.11865234375-2.796630859375t0.8212890625-2.584228515625q0.0849609375-0.32568359375,0.403564453125-0.43896484375t0.686767578125-0.077880859375t0.658447265625,0.177001953125t0.346923828125,0.33984375q-0.283203125,2.37890625-0.446044921875,4.7578125t-0.162841796875,4.7861328125q0,0.46728515625,0.04248046875,0.856689453125t-0.04248046875,0.66552734375t-0.375244140625,0.43896484375t-0.927490234375,0.162841796875q-0.1416015625,0-0.361083984375-0.0283203125t-0.453125-0.092041015625t-0.396484375-0.191162109375t-0.162841796875-0.29736328125q0-1.0478515625,0.077880859375-2.15234375t0.219482421875-2.13818359375q-0.38232421875,0.55224609375-0.842529296875,1.097412109375t-1.012451171875,0.984130859375t-1.189453125,0.700927734375t-1.37353515625,0.261962890625q-1.0478515625,0-1.649658203125-0.49560546875t-0.90625-1.239013671875t-0.38232421875-1.621337890625t-0.077880859375-1.69921875z M132.24184570312,34.2890625l0-0.41064453125q0-0.509765625,0.0283203125-0.962890625q0.0283203125-0.63720703125,0.0283203125-1.0478515625q0-0.2265625,0.0283203125-0.516845703125t0.1416015625-0.460205078125q0.1416015625-0.1416015625,0.332763671875-0.290283203125t0.417724609375-0.148681640625q0.72216796875,0,1.1328125,0.162841796875t0.43896484375,0.672607421875l0.056640625,0.43896484375q0.2548828125-0.60888671875,0.6796875-1.508056640625t0.984130859375-1.71337890625t1.26025390625-1.3876953125t1.479736328125-0.573486328125q0.72216796875,0,1.189453125,0.6796875t0.743408203125,1.734619140625t0.389404296875,2.3505859375t0.15576171875,2.541748046875t0.056640625,2.272705078125t0.09912109375,1.550537109375q0.056640625,0.43896484375,0.191162109375,0.927490234375t0.134521484375,0.899169921875q0,0.11328125-0.162841796875,0.219482421875t-0.346923828125,0.177001953125t-0.375244140625,0.11328125t-0.276123046875,0.04248046875q-0.55224609375,0-0.785888671875-0.828369140625t-0.290283203125-2.074462890625t-0.056640625-2.697509765625t-0.09912109375-2.697509765625t-0.403564453125-2.074462890625t-0.969970703125-0.856689453125q-0.60888671875,0-1.26025390625,0.785888671875t-1.11865234375,2.088623046875q-0.453125,1.302734375-0.623046875,2.95947265625q-0.056640625,0.52392578125-0.056640625,1.0478515625q0,1.14697265625,0.24072265625,2.2939453125q0.0283203125,0.1982421875-0.162841796875,0.29736328125t-0.474365234375,0.15576171875t-0.573486328125,0.07080078125t-0.446044921875,0.01416015625q-0.55224609375,0-0.885009765625-0.389404296875t-0.516845703125-0.998291015625t-0.247802734375-1.366455078125t-0.077880859375-1.493896484375z M145.10875488281,34.04833984375q0-1.1044921875,0.233642578125-2.003662109375t0.743408203125-1.522216796875t1.338134765625-0.969970703125t2.017822265625-0.346923828125q0.66552734375,0,1.359375,0.177001953125t1.189453125,0.658447265625q0-0.283203125,0.056640625-1.168212890625t0.1416015625-2.060302734375t0.177001953125-2.4638671875t0.162841796875-2.39306640625t0.12744140625-1.85498046875t0.0849609375-0.849609375q0.1416015625-0.41064453125,0.52392578125-0.488525390625t0.72216796875-0.077880859375q0.89208984375,0,1.097412109375,0.283203125t0.205322265625,1.1328125q0,3.10107421875-0.276123046875,6.173828125t-0.276123046875,6.173828125q0,1.99658203125,0.077880859375,4.014404296875t0.559326171875,3.971923828125l0.15576171875,0.1416015625l0.0849609375,0.2548828125l-0.21240234375,0.32568359375q-0.5380859375,0.33984375-1.24609375,0.33984375l-0.056640625,0q-0.72216796875,0-1.3310546875-0.33984375q-0.2265625-0.1416015625-0.375244140625-0.842529296875t-0.233642578125-1.54345703125t-0.12744140625-1.621337890625t-0.07080078125-1.1044921875q-0.49560546875,1.1328125-1.352294921875,1.947021484375t-2.159423828125,0.814208984375q-1.01953125,0-1.6708984375-0.43896484375t-1.012451171875-1.11865234375t-0.509765625-1.522216796875t-0.148681640625-1.677978515625z M146.82213378906,34.13330078125q0,0.32568359375,0.077880859375,0.962890625t0.247802734375,1.2744140625t0.474365234375,1.1328125t0.800048828125,0.49560546875q0.66552734375-0.32568359375,1.20361328125-1.083251953125t0.927490234375-1.6708984375t0.60888671875-1.82666015625t0.219482421875-1.578857421875q0-0.83544921875-0.60888671875-1.3876953125t-1.45849609375-0.55224609375q-0.2548828125,0-0.516845703125,0.09912109375t-0.488525390625,0.2265625q-0.52392578125,0.49560546875-0.814208984375,0.899169921875t-0.43896484375,0.83544921875t-0.191162109375,0.955810546875t-0.04248046875,1.2177734375z M158.51375,34.21826171875q0-0.962890625,0.261962890625-1.85498046875t0.785888671875-1.593017578125t1.309814453125-1.11865234375t1.819580078125-0.417724609375q0.63720703125,0,1.408935546875,0.191162109375t1.451416015625,0.56640625t1.1328125,0.955810546875t0.453125,1.3310546875q0,0.35400390625-0.120361328125,0.5380859375t-0.488525390625,0.18408203125l-0.15576171875-0.0283203125q0.41064453125,1.1044921875,0.7080078125,2.265625t0.58056640625,2.322265625q0.11328125,0.2265625,0.169921875,0.403564453125t0.056640625,0.346923828125q0,0.2265625-0.12744140625,0.375244140625t-0.332763671875,0.219482421875t-0.4248046875,0.09912109375t-0.389404296875,0.0283203125q-0.60888671875,0-0.913330078125-0.21240234375t-0.43896484375-0.58056640625t-0.162841796875-0.828369140625t-0.11328125-0.927490234375q-0.169921875,0.55224609375-0.446044921875,1.076171875t-0.6513671875,0.941650390625t-0.885009765625,0.66552734375t-1.14697265625,0.247802734375q-0.9345703125,0-1.57177734375-0.5380859375t-1.026611328125-1.323974609375t-0.56640625-1.677978515625t-0.177001953125-1.65673828125z M160.5244921875,34.02001953125q0,0.52392578125,0.07080078125,1.1044921875t0.233642578125,1.14697265625t0.417724609375,1.069091796875t0.63720703125,0.885009765625q0.69384765625-0.75048828125,1.026611328125-1.82666015625t0.5947265625-2.074462890625t0.5947265625-1.71337890625t1.026611328125-0.715087890625q0.43896484375,0,0.736328125,0.15576171875q-0.1416015625-0.35400390625-0.46728515625-0.686767578125t-0.729248046875-0.60888671875t-0.83544921875-0.453125t-0.814208984375-0.177001953125q-0.11328125,0-0.261962890625,0.035400390625t-0.233642578125,0.007080078125q-0.58056640625,0.169921875-0.955810546875,0.587646484375t-0.60888671875,0.984130859375t-0.332763671875,1.1611328125t-0.09912109375,1.11865234375z M170.80009277344,34.2890625l0-0.41064453125q0-0.509765625,0.0283203125-0.962890625q0.0283203125-0.63720703125,0.0283203125-1.0478515625q0-0.2265625,0.0283203125-0.516845703125t0.1416015625-0.460205078125q0.1416015625-0.1416015625,0.332763671875-0.290283203125t0.417724609375-0.148681640625q0.72216796875,0,1.1328125,0.162841796875t0.43896484375,0.672607421875l0.056640625,0.43896484375q0.2548828125-0.60888671875,0.6796875-1.508056640625t0.984130859375-1.71337890625t1.26025390625-1.3876953125t1.479736328125-0.573486328125q0.72216796875,0,1.189453125,0.6796875t0.743408203125,1.734619140625t0.389404296875,2.3505859375t0.15576171875,2.541748046875t0.056640625,2.272705078125t0.09912109375,1.550537109375q0.056640625,0.43896484375,0.191162109375,0.927490234375t0.134521484375,0.899169921875q0,0.11328125-0.162841796875,0.219482421875t-0.346923828125,0.177001953125t-0.375244140625,0.11328125t-0.276123046875,0.04248046875q-0.55224609375,0-0.785888671875-0.828369140625t-0.290283203125-2.074462890625t-0.056640625-2.697509765625t-0.09912109375-2.697509765625t-0.403564453125-2.074462890625t-0.969970703125-0.856689453125q-0.60888671875,0-1.26025390625,0.785888671875t-1.11865234375,2.088623046875q-0.453125,1.302734375-0.623046875,2.95947265625q-0.056640625,0.52392578125-0.056640625,1.0478515625q0,1.14697265625,0.24072265625,2.2939453125q0.0283203125,0.1982421875-0.162841796875,0.29736328125t-0.474365234375,0.15576171875t-0.573486328125,0.07080078125t-0.446044921875,0.01416015625q-0.55224609375,0-0.885009765625-0.389404296875t-0.516845703125-0.998291015625t-0.247802734375-1.366455078125t-0.077880859375-1.493896484375z M183.08643554687,25.2265625q0-0.1982421875,0.4248046875-0.33984375t0.962890625-0.233642578125t1.040771484375-0.134521484375t0.686767578125-0.07080078125q0-0.38232421875,0.0283203125-0.771728515625t0.15576171875-0.69384765625t0.403564453125-0.488525390625t0.771728515625-0.18408203125q0.41064453125,0,0.623046875,0.09912109375t0.453125,0.41064453125q0.056640625,0.169921875,0.056640625,0.32568359375l0,0.474365234375t-0.0283203125,0.488525390625q0.52392578125-0.056640625,1.040771484375-0.134521484375t1.040771484375-0.077880859375q0.38232421875,0,0.52392578125,0.01416015625t0.283203125,0.33984375q0.11328125,0.32568359375-0.276123046875,0.49560546875t-0.9345703125,0.2548828125t-1.083251953125,0.12744140625t-0.6513671875,0.04248046875q-0.169921875,2.435546875-0.346923828125,4.82861328125t-0.177001953125,4.85693359375q0,1.1044921875,0.07080078125,2.27978515625t0.396484375,2.22314453125q0.0849609375,0.32568359375,0.283203125,0.60888671875t0.1982421875,0.60888671875q0,0.1982421875-0.15576171875,0.3115234375t-0.375244140625,0.191162109375t-0.43896484375,0.092041015625t-0.361083984375,0.01416015625q-0.89208984375,0-1.359375-0.66552734375t-0.672607421875-1.593017578125t-0.219482421875-1.904541015625t-0.01416015625-1.5859375q0-1.24609375,0.049560546875-2.548828125t0.120361328125-2.5771484375t0.1982421875-2.4921875t0.29736328125-2.265625q-0.49560546875,0.056640625-0.969970703125,0.12744140625t-0.969970703125,0.07080078125q-0.11328125,0-0.304443359375-0.01416015625t-0.361083984375-0.07080078125t-0.290283203125-0.15576171875t-0.120361328125-0.283203125z M199.460390625,32.2216796875l0-2.2373046875q0-2.322265625,0.077880859375-4.609130859375t0.134521484375-4.609130859375q0-0.43896484375-0.0283203125-0.97705078125q-0.01416015625-0.15576171875-0.01416015625-0.29736328125q0-0.35400390625,0.056640625-0.69384765625q0.07080078125-0.453125,0.346923828125-0.77880859375t0.913330078125-0.32568359375q0.52392578125,0,0.800048828125,0.11328125t0.389404296875,0.332763671875t0.12744140625,0.55224609375t0.01416015625,0.771728515625q0,2.3505859375-0.056640625,4.71533203125q-0.04248046875,1.57177734375-0.04248046875,3.1435546875q0,0.79296875,0.01416015625,1.5859375q0.0283203125,2.3505859375,0.219482421875,4.701171875t0.644287109375,4.64453125q1.416015625-0.056640625,2.83203125-0.1416015625t2.83203125-0.0849609375q0.1416015625,0,0.403564453125,0.0283203125t0.52392578125,0.09912109375t0.446044921875,0.18408203125t0.18408203125,0.32568359375q0,0.1416015625-0.12744140625,0.24072265625t-0.24072265625,0.15576171875l-0.0283203125,0q-0.2265625,0.11328125-0.899169921875,0.219482421875t-1.529296875,0.162841796875t-1.79833984375,0.09912109375t-1.77001953125,0.07080078125t-1.437255859375,0.04248046875t-0.75048828125,0.01416015625l-0.12744140625,0q-0.33984375,0-0.7646484375-0.11328125q-0.509765625-0.1416015625-0.63720703125-0.55224609375q-0.2548828125-1.0478515625-0.403564453125-2.173583984375t-0.2265625-2.286865234375t-0.077880859375-2.322265625z M212.31313964844,33.87841796875q0-1.302734375,0.304443359375-2.555908203125t0.516845703125-2.499267578125q0.056640625-0.32568359375,0.446044921875-0.403564453125t0.658447265625-0.077880859375q0.46728515625,0,0.75048828125,0.1416015625q0.11328125,0.056640625,0.21240234375,0.12744140625t0.09912109375,0.18408203125q0,1.2177734375-0.290283203125,2.37890625t-0.290283203125,2.4638671875q0,0.43896484375,0.063720703125,0.828369140625t0.120361328125,0.771728515625l0.0849609375,0.41064453125q0,0.11328125,0.01416015625,0.1982421875t0.04248046875,0.1982421875q0,0.2548828125-0.361083984375,0.346923828125t-0.630126953125,0.092041015625q-0.41064453125,0-0.757568359375-0.162841796875t-0.545166015625-0.559326171875l-0.1982421875-0.41064453125q-0.169921875-0.32568359375-0.169921875-0.729248046875t-0.07080078125-0.743408203125z M213.21938964844,25.35400390625l0-0.26904296875q0-0.66552734375,0.332763671875-1.189453125t0.998291015625-0.52392578125q0.0849609375,0,0.162841796875,0.01416015625t0.162841796875,0.01416015625q0.169921875,0.0283203125,0.446044921875,0.134521484375t0.276123046875,0.332763671875l0,0.0283203125q-0.056640625,0.11328125-0.07080078125,0.233642578125t-0.07080078125,0.205322265625l0.0283203125-0.0283203125q-0.169921875,0.43896484375-0.276123046875,0.7080078125t-0.233642578125,0.431884765625t-0.318603515625,0.233642578125t-0.545166015625,0.07080078125q-0.056640625,0-0.1982421875-0.01416015625t-0.304443359375-0.056640625t-0.276123046875-0.11328125t-0.11328125-0.21240234375z M217.91588867187,28.95068359375q0-0.11328125,0.134521484375-0.205322265625t0.304443359375-0.134521484375t0.346923828125-0.056640625t0.261962890625-0.01416015625q0.63720703125,0,1.09033203125,0.56640625t0.785888671875,1.451416015625t0.56640625,1.9541015625t0.446044921875,2.131103515625t0.417724609375,1.947021484375t0.460205078125,1.366455078125q0.43896484375-0.86376953125,0.800048828125-2.08154296875t0.66552734375-2.5205078125t0.5380859375-2.570068359375t0.375244140625-2.216064453125q0.056640625-0.2548828125,0.35400390625-0.318603515625t0.49560546875-0.063720703125q0.32568359375,0,0.56640625,0.092041015625t0.24072265625,0.403564453125q0,0.52392578125-0.12744140625,1.423095703125t-0.346923828125,2.017822265625t-0.509765625,2.2939453125t-0.623046875,2.230224609375t-0.69384765625,1.869140625t-0.715087890625,1.154052734375q-0.169921875,0.1982421875-0.531005859375,0.276123046875t-0.601806640625,0.077880859375q-0.83544921875,0-1.3876953125-0.43896484375l0,0.0283203125q-0.86376953125-0.80712890625-1.2744140625-1.96826171875t-0.5947265625-2.42138671875t-0.332763671875-2.50634765625t-0.502685546875-2.265625q-0.056640625-0.11328125-0.1416015625-0.332763671875t-0.1982421875-0.43896484375t-0.191162109375-0.417724609375t-0.077880859375-0.3115234375z M229.08357910156,33.87841796875q0-1.302734375,0.304443359375-2.555908203125t0.516845703125-2.499267578125q0.056640625-0.32568359375,0.446044921875-0.403564453125t0.658447265625-0.077880859375q0.46728515625,0,0.75048828125,0.1416015625q0.11328125,0.056640625,0.21240234375,0.12744140625t0.09912109375,0.18408203125q0,1.2177734375-0.290283203125,2.37890625t-0.290283203125,2.4638671875q0,0.43896484375,0.063720703125,0.828369140625t0.120361328125,0.771728515625l0.0849609375,0.41064453125q0,0.11328125,0.01416015625,0.1982421875t0.04248046875,0.1982421875q0,0.2548828125-0.361083984375,0.346923828125t-0.630126953125,0.092041015625q-0.41064453125,0-0.757568359375-0.162841796875t-0.545166015625-0.559326171875l-0.1982421875-0.41064453125q-0.169921875-0.32568359375-0.169921875-0.729248046875t-0.07080078125-0.743408203125z M229.98982910156,25.35400390625l0-0.26904296875q0-0.66552734375,0.332763671875-1.189453125t0.998291015625-0.52392578125q0.0849609375,0,0.162841796875,0.01416015625t0.162841796875,0.01416015625q0.169921875,0.0283203125,0.446044921875,0.134521484375t0.276123046875,0.332763671875l0,0.0283203125q-0.056640625,0.11328125-0.07080078125,0.233642578125t-0.07080078125,0.205322265625l0.0283203125-0.0283203125q-0.169921875,0.43896484375-0.276123046875,0.7080078125t-0.233642578125,0.431884765625t-0.318603515625,0.233642578125t-0.545166015625,0.07080078125q-0.056640625,0-0.1982421875-0.01416015625t-0.304443359375-0.056640625t-0.276123046875-0.11328125t-0.11328125-0.21240234375z M235.2810546875,34.2890625l0-0.41064453125q0-0.509765625,0.0283203125-0.962890625q0.0283203125-0.63720703125,0.0283203125-1.0478515625q0-0.2265625,0.0283203125-0.516845703125t0.1416015625-0.460205078125q0.1416015625-0.1416015625,0.332763671875-0.290283203125t0.417724609375-0.148681640625q0.72216796875,0,1.1328125,0.162841796875t0.43896484375,0.672607421875l0.056640625,0.43896484375q0.2548828125-0.60888671875,0.6796875-1.508056640625t0.984130859375-1.71337890625t1.26025390625-1.3876953125t1.479736328125-0.573486328125q0.72216796875,0,1.189453125,0.6796875t0.743408203125,1.734619140625t0.389404296875,2.3505859375t0.15576171875,2.541748046875t0.056640625,2.272705078125t0.09912109375,1.550537109375q0.056640625,0.43896484375,0.191162109375,0.927490234375t0.134521484375,0.899169921875q0,0.11328125-0.162841796875,0.219482421875t-0.346923828125,0.177001953125t-0.375244140625,0.11328125t-0.276123046875,0.04248046875q-0.55224609375,0-0.785888671875-0.828369140625t-0.290283203125-2.074462890625t-0.056640625-2.697509765625t-0.09912109375-2.697509765625t-0.403564453125-2.074462890625t-0.969970703125-0.856689453125q-0.60888671875,0-1.26025390625,0.785888671875t-1.11865234375,2.088623046875q-0.453125,1.302734375-0.623046875,2.95947265625q-0.056640625,0.52392578125-0.056640625,1.0478515625q0,1.14697265625,0.24072265625,2.2939453125q0.0283203125,0.1982421875-0.162841796875,0.29736328125t-0.474365234375,0.15576171875t-0.573486328125,0.07080078125t-0.446044921875,0.01416015625q-0.55224609375,0-0.885009765625-0.389404296875t-0.516845703125-0.998291015625t-0.247802734375-1.366455078125t-0.077880859375-1.493896484375z M248.14796386719,33.72265625q0-0.77880859375,0.148681640625-1.663818359375t0.509765625-1.621337890625t0.998291015625-1.2177734375t1.62841796875-0.4814453125q0.66552734375,0,1.28857421875,0.219482421875t1.17529296875,0.601806640625q0.169921875-0.283203125,0.5380859375-0.346923828125t0.6513671875-0.063720703125q0.11328125,0,0.318603515625,0.01416015625t0.403564453125,0.0849609375t0.346923828125,0.169921875t0.177001953125,0.283203125q0.11328125,0.9912109375,0.15576171875,1.975341796875t0.12744140625,1.961181640625q0.1416015625,1.82666015625,0.43896484375,3.61083984375t0.29736328125,3.61083984375q0,0.86376953125-0.077880859375,1.869140625t-0.41064453125,1.862060546875t-0.969970703125,1.423095703125t-1.77001953125,0.56640625q-1.01953125,0-1.564697265625-0.361083984375t-0.984130859375-1.210693359375q0.0283203125-0.283203125,0.361083984375-0.375244140625t0.573486328125-0.092041015625q0.2265625,0,0.460205078125,0.04248046875t0.375244140625,0.1416015625l0.35400390625,0.2265625q0.52392578125-1.076171875,0.63720703125-2.3505859375t0.11328125-2.4638671875q0-0.9912109375-0.09912109375-1.961181640625t-0.1982421875-1.947021484375q-0.9912109375,1.79833984375-3.01611328125,1.79833984375q-0.9345703125,0-1.522216796875-0.396484375t-0.90625-1.00537109375t-0.43896484375-1.37353515625t-0.120361328125-1.529296875z M249.88966308594,33.85009765625q0,0.35400390625,0.0283203125,0.913330078125t0.148681640625,1.097412109375t0.346923828125,0.927490234375t0.63720703125,0.389404296875q0.77880859375,0,1.23193359375-0.60888671875t0.715087890625-1.451416015625t0.417724609375-1.74169921875t0.396484375-1.479736328125q-0.0283203125-0.1982421875-0.0283203125-0.389404296875l0-0.389404296875q-0.32568359375-0.60888671875-0.94873046875-1.054931640625t-1.28857421875-0.601806640625q-0.0849609375-0.01416015625-0.15576171875-0.01416015625q-0.396484375,0-0.6513671875,0.46728515625q-0.32568359375,0.56640625-0.509765625,1.352294921875t-0.261962890625,1.550537109375t-0.077880859375,1.03369140625z M265.76801269531,37.970703125q0.0283203125-0.5947265625,0.0283203125-1.1611328125q0-2.05322265625,0.148681640625-4.09228515625t0.205322265625-4.09228515625q0.0849609375-2.3505859375,0.15576171875-4.65869140625t0.283203125-4.64453125q0.056640625-0.58056640625,0.332763671875-0.757568359375t0.828369140625-0.177001953125q0.2548828125,0,0.6796875,0.09912109375t0.4248046875,0.4814453125q0.1982421875,0.0283203125,0.396484375,0.0283203125q0.29736328125,0,0.60888671875-0.056640625q0.509765625-0.0849609375,1.040771484375-0.191162109375t1.054931640625-0.205322265625t1.00537109375-0.09912109375q0.11328125,0,0.318603515625,0.01416015625t0.41064453125,0.0849609375t0.346923828125,0.177001953125t0.1416015625,0.276123046875t-0.332763671875,0.304443359375t-0.870849609375,0.233642578125t-1.1611328125,0.169921875t-1.2177734375,0.120361328125t-1.054931640625,0.077880859375t-0.658447265625,0.0283203125l-0.0283203125,5.32421875l0.0283203125,2.64794921875q0.43896484375,0,1.31689453125-0.0283203125q0.35400390625-0.01416015625,0.7080078125-0.01416015625q0.5380859375,0,1.1044921875,0.0283203125q0.9345703125,0.04248046875,1.68505859375,0.169921875t0.94873046875,0.453125q0,0.1982421875-0.205322265625,0.318603515625t-0.460205078125,0.177001953125t-0.516845703125,0.07080078125t-0.375244140625,0.01416015625q-1.0478515625,0-2.10986328125-0.04248046875t-2.095703125-0.169921875q0,1.74169921875-0.092041015625,3.455078125t-0.092041015625,3.455078125q0,0.75048828125,0.01416015625,1.479736328125t0.169921875,1.451416015625q0.38232421875-0.0283203125,0.828369140625-0.07080078125t0.90625-0.106201171875t0.885009765625-0.106201171875t0.736328125-0.04248046875q0.169921875,0,0.460205078125,0.04248046875t0.5947265625,0.1416015625t0.52392578125,0.247802734375t0.219482421875,0.346923828125q0,0.2265625-0.417724609375,0.403564453125t-1.069091796875,0.283203125t-1.423095703125,0.148681640625t-1.493896484375,0.056640625t-1.302734375,0.01416015625l-0.8212890625,0q-0.77880859375,0-1.139892578125-0.290283203125t-0.502685546875-0.757568359375q-0.11328125-0.38232421875-0.09912109375-0.86376953125l0-0.1982421875z M276.822421875,38.66455078125q0-0.0849609375,0.205322265625-0.453125t0.52392578125-0.885009765625t0.69384765625-1.125732421875t0.75048828125-1.20361328125t0.700927734375-1.076171875t0.49560546875-0.736328125q-0.169921875-0.32568359375-0.58056640625-0.89208984375t-0.842529296875-1.14697265625t-0.75048828125-1.11865234375t-0.318603515625-0.79296875q0-0.41064453125,0.403564453125-0.5380859375t0.785888671875-0.12744140625q0.41064453125,0,0.58056640625,0.07080078125t0.453125,0.396484375q-0.0283203125,0.0849609375,0.205322265625,0.446044921875t0.55224609375,0.7646484375t0.60888671875,0.736328125t0.346923828125,0.431884765625l0.623046875-0.623046875t0.771728515625-0.715087890625t0.842529296875-0.58056640625t0.80712890625-0.233642578125q0.1416015625,0,0.431884765625,0.07080078125t0.290283203125,0.283203125q-0.41064453125,0.43896484375-0.75048828125,0.72216796875t-0.69384765625,0.573486328125t-0.7080078125,0.6513671875t-0.8212890625,0.913330078125q0.1982421875,0.32568359375,0.75048828125,1.076171875t1.11865234375,1.593017578125t0.998291015625,1.5859375t0.431884765625,1.026611328125q0,0.169921875-0.177001953125,0.276123046875t-0.403564453125,0.177001953125t-0.460205078125,0.09912109375t-0.346923828125,0.0283203125q-0.32568359375,0-0.743408203125-0.0849609375t-0.601806640625-0.38232421875q-0.55224609375-0.80712890625-0.955810546875-1.692138671875t-0.984130859375-1.692138671875q-0.11328125,0.1982421875-0.460205078125,0.9345703125t-0.828369140625,1.550537109375t-1.012451171875,1.451416015625t-0.969970703125,0.63720703125l-0.0283203125,0q-0.1982421875,0-0.56640625-0.07080078125t-0.3681640625-0.32568359375z M287.90515136719,29.09228515625q0-0.66552734375,0.261962890625-0.984130859375t0.955810546875-0.318603515625q0.41064453125,0,0.771728515625,0.169921875t0.361083984375,0.72216796875q0.056640625,0.80712890625,0.056640625,1.692138671875t0.15576171875,1.677978515625q0.35400390625-0.58056640625,0.800048828125-1.1611328125t0.984130859375-1.03369140625t1.17529296875-0.729248046875t1.3876953125-0.276123046875q1.01953125,0,1.7275390625,0.4248046875t1.168212890625,1.1044921875t0.66552734375,1.536376953125t0.205322265625,1.720458984375q0,1.3310546875-0.403564453125,2.173583984375t-1.069091796875,1.323974609375t-1.508056640625,0.6513671875t-1.692138671875,0.169921875q-0.75048828125,0-1.40185546875-0.290283203125t-0.90625-1.097412109375q0-0.2265625,0.332763671875-0.283203125t0.474365234375-0.056640625q0.46728515625,0,0.69384765625,0.2548828125q0.169921875,0.1982421875,0.375244140625,0.403564453125t0.431884765625,0.205322265625q0.43896484375,0,0.92041015625-0.247802734375t0.885009765625-0.6513671875t0.6796875-0.955810546875t0.276123046875-1.1328125q0-0.49560546875-0.0849609375-1.23193359375t-0.290283203125-1.416015625t-0.56640625-1.17529296875t-0.913330078125-0.49560546875q-0.83544921875,0-1.508056640625,0.7646484375t-1.11865234375,1.8408203125t-0.69384765625,2.2373046875t-0.247802734375,1.93994140625t0.09912109375,1.96826171875t0.205322265625,2.470947265625t0.205322265625,2.470947265625t0.09912109375,1.96826171875q0,0.1982421875-0.162841796875,0.318603515625t-0.389404296875,0.191162109375t-0.460205078125,0.0849609375t-0.346923828125,0.01416015625q-0.38232421875,0-0.800048828125-0.0849609375t-0.573486328125-0.52392578125q-0.1982421875-0.69384765625-0.3681640625-1.975341796875t-0.304443359375-2.83203125t-0.233642578125-3.2568359375t-0.169921875-3.292236328125t-0.106201171875-2.90283203125t-0.035400390625-2.095703125z M301.48006835938,34.798828125q0-0.9912109375,0.219482421875-2.33642578125t0.743408203125-2.548828125t1.380615234375-2.046142578125t2.159423828125-0.842529296875q1.2177734375,0,1.82666015625,0.700927734375t0.60888671875,1.890380859375q0,0.77880859375-0.290283203125,1.706298828125t-0.828369140625,1.755859375t-1.2744140625,1.380615234375t-1.642578125,0.55224609375l-0.3681640625-0.0283203125q0,0.38232421875,0.11328125,1.026611328125t0.332763671875,1.281494140625t0.56640625,1.11865234375t0.842529296875,0.4814453125q0.72216796875,0,1.3876953125-0.58056640625t1.26025390625-1.28857421875t1.1044921875-1.28857421875t0.9345703125-0.58056640625q0.2265625,0,0.46728515625,0.07080078125t0.26904296875,0.396484375q0,0.1982421875-0.106201171875,0.32568359375t-0.191162109375,0.283203125q-0.43896484375,0.75048828125-0.955810546875,1.43017578125t-1.168212890625,1.23193359375t-1.423095703125,0.870849609375t-1.706298828125,0.318603515625q-1.2177734375,0-2.02490234375-0.431884765625t-1.302734375-1.1611328125t-0.715087890625-1.68505859375t-0.219482421875-2.003662109375z M304.01473632813,33.72265625l0.396484375,0.35400390625q0.283203125,0.2548828125,0.56640625,0.11328125t0.509765625-0.516845703125t0.417724609375-0.927490234375t0.33984375-1.1328125t0.219482421875-1.1328125t0.07080078125-0.92041015625l0-0.4814453125t-0.04248046875-0.509765625t-0.148681640625-0.403564453125t-0.332763671875-0.205322265625q-0.07080078125-0.01416015625-0.12744140625-0.01416015625q-0.4814453125,0-0.8212890625,0.60888671875q-0.3681640625,0.6796875-0.5947265625,1.649658203125t-0.32568359375,1.989501953125t-0.12744140625,1.529296875z M313.31328613281,30.25341796875q0-0.58056640625,0.205322265625-0.97705078125t0.870849609375-0.396484375q0.2548828125,0,0.63720703125,0.077880859375t0.43896484375,0.389404296875q0.1416015625,0.83544921875,0.15576171875,1.8125t0.09912109375,1.8408203125q0.32568359375-0.63720703125,0.83544921875-1.37353515625t1.1611328125-1.359375t1.416015625-1.03369140625t1.5576171875-0.41064453125q0.056640625,0,0.21240234375,0.04248046875t0.290283203125,0.120361328125t0.162841796875,0.177001953125t-0.15576171875,0.18408203125q-0.056640625,0.169921875-0.24072265625,0.205322265625t-0.32568359375,0.035400390625q-0.0849609375,0-0.26904296875-0.07080078125q-1.0478515625,0.55224609375-1.7841796875,1.5009765625t-1.20361328125,2.102783203125t-0.6796875,2.435546875t-0.21240234375,2.499267578125q0,0.60888671875-0.276123046875,0.736328125t-0.885009765625,0.12744140625q-0.32568359375,0-0.686767578125-0.07080078125t-0.502685546875-0.453125q-0.2548828125-0.80712890625-0.417724609375-1.85498046875t-0.247802734375-2.159423828125t-0.120361328125-2.187744140625t-0.035400390625-1.93994140625z M323.376484375,33.87841796875q0-1.302734375,0.304443359375-2.555908203125t0.516845703125-2.499267578125q0.056640625-0.32568359375,0.446044921875-0.403564453125t0.658447265625-0.077880859375q0.46728515625,0,0.75048828125,0.1416015625q0.11328125,0.056640625,0.21240234375,0.12744140625t0.09912109375,0.18408203125q0,1.2177734375-0.290283203125,2.37890625t-0.290283203125,2.4638671875q0,0.43896484375,0.063720703125,0.828369140625t0.120361328125,0.771728515625l0.0849609375,0.41064453125q0,0.11328125,0.01416015625,0.1982421875t0.04248046875,0.1982421875q0,0.2548828125-0.361083984375,0.346923828125t-0.630126953125,0.092041015625q-0.41064453125,0-0.757568359375-0.162841796875t-0.545166015625-0.559326171875l-0.1982421875-0.41064453125q-0.169921875-0.32568359375-0.169921875-0.729248046875t-0.07080078125-0.743408203125z M324.282734375,25.35400390625l0-0.26904296875q0-0.66552734375,0.332763671875-1.189453125t0.998291015625-0.52392578125q0.0849609375,0,0.162841796875,0.01416015625t0.162841796875,0.01416015625q0.169921875,0.0283203125,0.446044921875,0.134521484375t0.276123046875,0.332763671875l0,0.0283203125q-0.056640625,0.11328125-0.07080078125,0.233642578125t-0.07080078125,0.205322265625l0.0283203125-0.0283203125q-0.169921875,0.43896484375-0.276123046875,0.7080078125t-0.233642578125,0.431884765625t-0.318603515625,0.233642578125t-0.545166015625,0.07080078125q-0.056640625,0-0.1982421875-0.01416015625t-0.304443359375-0.056640625t-0.276123046875-0.11328125t-0.11328125-0.21240234375z M329.59520019531,30.671142578125q-0.035400390625-0.474365234375,0.056640625-0.870849609375t0.3681640625-0.644287109375t0.885009765625-0.247802734375q0.1416015625,0,0.346923828125,0.035400390625t0.403564453125,0.092041015625t0.332763671875,0.169921875t0.134521484375,0.3115234375l0,1.60009765625q0.55224609375-0.63720703125,1.20361328125-0.913330078125t1.48681640625-0.276123046875q0.63720703125,0,1.26025390625,0.290283203125t1.17529296875,0.771728515625t0.955810546875,1.06201171875t0.587646484375,1.1611328125q0.11328125-0.52392578125,0.2548828125-1.281494140625t0.417724609375-1.451416015625t0.729248046875-1.189453125t1.20361328125-0.49560546875q0.80712890625,0,1.359375,0.58056640625t0.899169921875,1.508056640625t0.52392578125,2.074462890625t0.261962890625,2.265625t0.0849609375,2.088623046875l0,1.522216796875q0,0.169921875-0.12744140625,0.276123046875t-0.318603515625,0.162841796875t-0.396484375,0.07080078125t-0.318603515625,0.01416015625q-0.43896484375,0-0.800048828125-0.134521484375t-0.361083984375-0.686767578125l0-1.2744140625t-0.0283203125-1.649658203125t-0.09912109375-1.77001953125t-0.18408203125-1.607177734375t-0.290283203125-1.1611328125t-0.431884765625-0.453125q-0.35400390625,0-0.509765625,0.396484375t-0.261962890625,1.00537109375t-0.162841796875,1.28857421875t-0.15576171875,1.28857421875t-0.318603515625,0.998291015625t-0.601806640625,0.389404296875q-0.41064453125,0-0.72216796875-0.389404296875t-0.615966796875-0.969970703125t-0.60888671875-1.24609375t-0.672607421875-1.24609375q-0.3681640625-0.5947265625-0.79296875-0.962890625q-0.38232421875-0.35400390625-0.86376953125-0.33984375l-0.07080078125,0q-0.63720703125,0.0283203125-0.998291015625,0.460205078125t-0.55224609375,1.054931640625t-0.233642578125,1.338134765625t-0.04248046875,1.253173828125q0,0.509765625,0.0849609375,1.189453125q0.056640625,0.453125,0.056640625,0.86376953125q0,0.21240234375-0.01416015625,0.41064453125q-0.04248046875,0.5947265625-0.318603515625,0.998291015625t-1.026611328125,0.403564453125q-0.283203125,0-0.7080078125-0.056640625t-0.56640625-0.38232421875q-0.32568359375-0.58056640625-0.49560546875-1.465576171875t-0.2548828125-1.82666015625t-0.09912109375-1.869140625t-0.01416015625-1.593017578125q0-0.46728515625-0.035400390625-0.941650390625z M347.45356445313,34.798828125q0-0.9912109375,0.219482421875-2.33642578125t0.743408203125-2.548828125t1.380615234375-2.046142578125t2.159423828125-0.842529296875q1.2177734375,0,1.82666015625,0.700927734375t0.60888671875,1.890380859375q0,0.77880859375-0.290283203125,1.706298828125t-0.828369140625,1.755859375t-1.2744140625,1.380615234375t-1.642578125,0.55224609375l-0.3681640625-0.0283203125q0,0.38232421875,0.11328125,1.026611328125t0.332763671875,1.281494140625t0.56640625,1.11865234375t0.842529296875,0.4814453125q0.72216796875,0,1.3876953125-0.58056640625t1.26025390625-1.28857421875t1.1044921875-1.28857421875t0.9345703125-0.58056640625q0.2265625,0,0.46728515625,0.07080078125t0.26904296875,0.396484375q0,0.1982421875-0.106201171875,0.32568359375t-0.191162109375,0.283203125q-0.43896484375,0.75048828125-0.955810546875,1.43017578125t-1.168212890625,1.23193359375t-1.423095703125,0.870849609375t-1.706298828125,0.318603515625q-1.2177734375,0-2.02490234375-0.431884765625t-1.302734375-1.1611328125t-0.715087890625-1.68505859375t-0.219482421875-2.003662109375z M349.98823242188,33.72265625l0.396484375,0.35400390625q0.283203125,0.2548828125,0.56640625,0.11328125t0.509765625-0.516845703125t0.417724609375-0.927490234375t0.33984375-1.1328125t0.219482421875-1.1328125t0.07080078125-0.92041015625l0-0.4814453125t-0.04248046875-0.509765625t-0.148681640625-0.403564453125t-0.332763671875-0.205322265625q-0.07080078125-0.01416015625-0.12744140625-0.01416015625q-0.4814453125,0-0.8212890625,0.60888671875q-0.3681640625,0.6796875-0.5947265625,1.649658203125t-0.32568359375,1.989501953125t-0.12744140625,1.529296875z M359.30094238281,34.2890625l0-0.41064453125q0-0.509765625,0.0283203125-0.962890625q0.0283203125-0.63720703125,0.0283203125-1.0478515625q0-0.2265625,0.0283203125-0.516845703125t0.1416015625-0.460205078125q0.1416015625-0.1416015625,0.332763671875-0.290283203125t0.417724609375-0.148681640625q0.72216796875,0,1.1328125,0.162841796875t0.43896484375,0.672607421875l0.056640625,0.43896484375q0.2548828125-0.60888671875,0.6796875-1.508056640625t0.984130859375-1.71337890625t1.26025390625-1.3876953125t1.479736328125-0.573486328125q0.72216796875,0,1.189453125,0.6796875t0.743408203125,1.734619140625t0.389404296875,2.3505859375t0.15576171875,2.541748046875t0.056640625,2.272705078125t0.09912109375,1.550537109375q0.056640625,0.43896484375,0.191162109375,0.927490234375t0.134521484375,0.899169921875q0,0.11328125-0.162841796875,0.219482421875t-0.346923828125,0.177001953125t-0.375244140625,0.11328125t-0.276123046875,0.04248046875q-0.55224609375,0-0.785888671875-0.828369140625t-0.290283203125-2.074462890625t-0.056640625-2.697509765625t-0.09912109375-2.697509765625t-0.403564453125-2.074462890625t-0.969970703125-0.856689453125q-0.60888671875,0-1.26025390625,0.785888671875t-1.11865234375,2.088623046875q-0.453125,1.302734375-0.623046875,2.95947265625q-0.056640625,0.52392578125-0.056640625,1.0478515625q0,1.14697265625,0.24072265625,2.2939453125q0.0283203125,0.1982421875-0.162841796875,0.29736328125t-0.474365234375,0.15576171875t-0.573486328125,0.07080078125t-0.446044921875,0.01416015625q-0.55224609375,0-0.885009765625-0.389404296875t-0.516845703125-0.998291015625t-0.247802734375-1.366455078125t-0.077880859375-1.493896484375z M371.58728515625,25.2265625q0-0.1982421875,0.4248046875-0.33984375t0.962890625-0.233642578125t1.040771484375-0.134521484375t0.686767578125-0.07080078125q0-0.38232421875,0.0283203125-0.771728515625t0.15576171875-0.69384765625t0.403564453125-0.488525390625t0.771728515625-0.18408203125q0.41064453125,0,0.623046875,0.09912109375t0.453125,0.41064453125q0.056640625,0.169921875,0.056640625,0.32568359375l0,0.474365234375t-0.0283203125,0.488525390625q0.52392578125-0.056640625,1.040771484375-0.134521484375t1.040771484375-0.077880859375q0.38232421875,0,0.52392578125,0.01416015625t0.283203125,0.33984375q0.11328125,0.32568359375-0.276123046875,0.49560546875t-0.9345703125,0.2548828125t-1.083251953125,0.12744140625t-0.6513671875,0.04248046875q-0.169921875,2.435546875-0.346923828125,4.82861328125t-0.177001953125,4.85693359375q0,1.1044921875,0.07080078125,2.27978515625t0.396484375,2.22314453125q0.0849609375,0.32568359375,0.283203125,0.60888671875t0.1982421875,0.60888671875q0,0.1982421875-0.15576171875,0.3115234375t-0.375244140625,0.191162109375t-0.43896484375,0.092041015625t-0.361083984375,0.01416015625q-0.89208984375,0-1.359375-0.66552734375t-0.672607421875-1.593017578125t-0.219482421875-1.904541015625t-0.01416015625-1.5859375q0-1.24609375,0.049560546875-2.548828125t0.120361328125-2.5771484375t0.1982421875-2.4921875t0.29736328125-2.265625q-0.49560546875,0.056640625-0.969970703125,0.12744140625t-0.969970703125,0.07080078125q-0.11328125,0-0.304443359375-0.01416015625t-0.361083984375-0.07080078125t-0.290283203125-0.15576171875t-0.120361328125-0.283203125z M382.41513183594,30.56494140625q0-0.58056640625,0.33984375-0.998291015625t0.828369140625-0.6796875t1.069091796875-0.389404296875t1.076171875-0.12744140625q0.38232421875,0,1.01953125,0.11328125t1.24609375,0.33984375t1.054931640625,0.5947265625t0.446044921875,0.86376953125q0,0.2265625-0.169921875,0.403564453125t-0.35400390625,0.177001953125q-0.38232421875,0-0.69384765625-0.247802734375t-0.644287109375-0.52392578125t-0.729248046875-0.52392578125t-0.89208984375-0.247802734375t-0.899169921875,0.318603515625t-0.403564453125,0.842529296875q0,0.86376953125,0.60888671875,1.692138671875t1.338134765625,1.74169921875t1.338134765625,1.918701171875t0.60888671875,2.22314453125q0,0.52392578125-0.219482421875,0.885009765625t-0.58056640625,0.587646484375t-0.814208984375,0.346923828125t-0.8779296875,0.120361328125q-0.46728515625,0-1.09033203125-0.219482421875t-1.17529296875-0.58056640625t-0.927490234375-0.842529296875t-0.375244140625-1.00537109375q0-0.2548828125,0.361083984375-0.32568359375t0.531005859375-0.07080078125q0.0849609375,0,0.261962890625,0.056640625t0.346923828125,0.12744140625t0.304443359375,0.15576171875t0.106201171875,0.18408203125q0.1416015625,0.169921875,0.431884765625,0.502685546875t0.58056640625,0.5380859375t0.509765625,0.148681640625t0.219482421875-0.63720703125q0-1.1044921875-0.5947265625-2.031982421875t-1.295654296875-1.8125t-1.295654296875-1.755859375t-0.5947265625-1.862060546875z"/><path fill="#" d=""/></svg>
